<?xml version="1.0" encoding="iso-8859-1"?>
<!-- Generator: Adobe Illustrator 19.0.0, SVG Export Plug-In . SVG Version: 6.00 Build 0)  -->
<svg version="1.1" id="Layer_1" xmlns="http://www.w3.org/2000/svg" xmlns:xlink="http://www.w3.org/1999/xlink" x="0px" y="0px"
	 viewBox="0 0 491.52 491.52" style="enable-background:new 0 0 491.52 491.52;" xml:space="preserve">
<path style="fill:#64798A;" d="M469.453,0H22.067C9.88,0,0,9.88,0,22.067v447.387c0,12.187,9.88,22.067,22.067,22.067h447.387
	c12.185,0,22.067-9.88,22.067-22.067V22.067C491.52,9.88,481.639,0,469.453,0z"/>
<g>
	<rect x="35.748" y="91.361" style="fill:#EBF0F3;" width="420.045" height="364.39"/>
	<rect x="35.748" y="31.703" style="fill:#EBF0F3;" width="300.339" height="25.405"/>
</g>
<rect x="35.748" y="442.317" style="fill:#D5D6DB;" width="420.045" height="13.435"/>
<circle style="fill:#FCD462;" cx="363.827" cy="44.406" r="12.703"/>
<circle style="fill:#44C4A1;" cx="403.456" cy="44.406" r="12.703"/>
<circle style="fill:#E56353;" cx="443.085" cy="44.406" r="12.703"/>
<rect x="63.841" y="114.468" style="fill:#27A2DB;" width="58.045" height="22.902"/>
<rect x="160.594" y="114.468" style="fill:#E56353;" width="58.045" height="22.902"/>
<rect x="266.496" y="114.468" style="fill:#44C4A1;" width="124.237" height="22.902"/>
<rect x="63.841" y="307.507" style="fill:#27A2DB;" width="58.045" height="22.902"/>
<rect x="160.594" y="307.507" style="fill:#E56353;" width="58.045" height="22.902"/>
<rect x="266.496" y="307.507" style="fill:#44C4A1;" width="124.237" height="22.902"/>
<rect x="63.841" y="243.149" style="fill:#FCD462;" width="96.753" height="22.902"/>
<rect x="190.106" y="243.149" style="fill:#27A2DB;" width="58.045" height="22.902"/>
<rect x="277.709" y="243.149" style="fill:#D5D6DB;" width="113.05" height="22.902"/>
<g>
	<rect x="63.841" y="178.811" style="fill:#64798A;" width="58.045" height="22.902"/>
	<rect x="160.594" y="178.811" style="fill:#64798A;" width="126.285" height="22.902"/>
</g>
<rect x="322.514" y="178.811" style="fill:#E56353;" width="68.234" height="22.902"/>
<rect x="63.841" y="371.815" style="fill:#44C4A1;" width="58.045" height="22.902"/>
<rect x="160.594" y="371.815" style="fill:#64798A;" width="126.285" height="22.902"/>
<rect x="322.514" y="371.815" style="fill:#E56353;" width="68.234" height="22.902"/>
<rect x="315.226" y="180.631" transform="matrix(-0.7071 -0.7071 0.7071 -0.7071 348.1646 743.4069)" style="fill:#44C4A1;" width="25.651" height="237.926"/>
<rect x="333.339" y="198.776" transform="matrix(-0.7071 -0.7071 0.7071 -0.7071 366.2635 787.1912)" style="fill:#3EA69B;" width="25.651" height="237.928"/>
<rect x="351.485" y="216.948" transform="matrix(-0.7071 -0.7071 0.7071 -0.7071 384.3921 831.0445)" style="fill:#31978C;" width="25.651" height="237.927"/>
<path style="fill:#64798A;" d="M217.337,454.502l29.651-10.484c-1.374-6.434-4.534-12.565-9.534-17.563
	c-4.999-4.999-11.129-8.16-17.563-9.534l-10.484,29.651C207.665,451.499,212.411,456.244,217.337,454.502z"/>
<path style="fill:#FCD462;" d="M234.831,374.663l-14.94,42.258c4.058,0.867,7.993,2.447,11.601,4.747l21.478-28.867L234.831,374.663
	z"/>
<path style="fill:#DC8744;" d="M289.245,429.078l-18.138-18.138l-28.867,21.477c2.3,3.609,3.882,7.544,4.748,11.602L289.245,429.078
	z"/>
<path style="fill:#F6C358;" d="M252.969,392.801l-21.478,28.867c2.114,1.348,4.116,2.94,5.963,4.787
	c1.846,1.846,3.438,3.848,4.786,5.962l28.867-21.477L252.969,392.801z"/>
<rect x="387.849" y="231.144" transform="matrix(-0.7071 -0.7071 0.7071 -0.7071 559.8112 706.9726)" style="fill:#FCD462;" width="76.953" height="12.8"/>
<path style="fill:#E56353;" d="M455.331,262.994l-54.415-54.415l35.463-35.463c7.605-7.605,62.02,46.809,54.415,54.414
	L455.331,262.994z"/>
<g>
</g>
<g>
</g>
<g>
</g>
<g>
</g>
<g>
</g>
<g>
</g>
<g>
</g>
<g>
</g>
<g>
</g>
<g>
</g>
<g>
</g>
<g>
</g>
<g>
</g>
<g>
</g>
<g>
</g>
</svg>
