<?xml version="1.0" encoding="iso-8859-1"?>
<!-- Generator: Adobe Illustrator 19.0.0, SVG Export Plug-In . SVG Version: 6.00 Build 0)  -->
<svg version="1.1" id="Layer_1" xmlns="http://www.w3.org/2000/svg" xmlns:xlink="http://www.w3.org/1999/xlink" x="0px" y="0px"
	 viewBox="0 0 512 512" style="enable-background:new 0 0 512 512;" xml:space="preserve">
<path style="fill:#EFEFEF;" d="M502.796,509.384H9.204c-5.083,0-9.204-4.121-9.204-9.204V11.821c0-5.083,4.121-9.204,9.204-9.204
	h493.591c5.083,0,9.204,4.121,9.204,9.204v488.358C512,505.262,507.879,509.384,502.796,509.384z"/>
<path style="fill:#FF7258;" d="M502.796,509.384H9.204c-5.083,0-9.204-4.121-9.204-9.204V380.836h512v119.343
	C512,505.262,507.879,509.384,502.796,509.384z"/>
<g>
	<path style="fill:#EFEFEF;" d="M373.372,434.902H50.469c-4.766,0-8.629-3.862-8.629-8.629s3.864-8.629,8.629-8.629h322.903
		c4.767,0,8.629,3.862,8.629,8.629S378.139,434.902,373.372,434.902z"/>
	<path style="fill:#EFEFEF;" d="M257.811,470.285H50.469c-4.766,0-8.629-3.862-8.629-8.629s3.864-8.629,8.629-8.629h207.34
		c4.767,0,8.629,3.862,8.629,8.629S262.578,470.285,257.811,470.285z"/>
</g>
<g>
	<rect y="70.23" style="fill:#E2E2E2;" width="512" height="30.447"/>
	<rect y="350.392" style="fill:#E2E2E2;" width="512" height="30.447"/>
</g>
<path style="fill:#EFEFEF;" d="M512,70.227H0V11.821c0-5.083,4.121-9.204,9.204-9.204h493.591c5.083,0,9.204,4.121,9.204,9.204
	V70.227z"/>
<path style="fill:#FF7258;" d="M471.397,45.05h-13.12c-4.767,0-8.629-3.862-8.629-8.629s3.862-8.629,8.629-8.629h13.12
	c4.767,0,8.629,3.862,8.629,8.629S476.162,45.05,471.397,45.05z"/>
<path style="fill:#FFDC65;" d="M424.799,45.05h-13.12c-4.767,0-8.629-3.862-8.629-8.629s3.862-8.629,8.629-8.629h13.12
	c4.767,0,8.629,3.862,8.629,8.629S429.565,45.05,424.799,45.05z"/>
<path style="fill:#72D54A;" d="M377.051,45.05h-13.12c-4.767,0-8.629-3.862-8.629-8.629s3.862-8.629,8.629-8.629h13.12
	c4.767,0,8.629,3.862,8.629,8.629S381.816,45.05,377.051,45.05z"/>
<path style="fill:#E2E2E2;" d="M173.183,45.05H40.497c-4.766,0-8.629-3.862-8.629-8.629s3.864-8.629,8.629-8.629h132.685
	c4.766,0,8.629,3.862,8.629,8.629S177.948,45.05,173.183,45.05z"/>
<g>
	<path style="fill:#FF7258;" d="M170.529,179.713c-3.37-3.369-8.834-3.369-12.203,0l-46.022,46.022c-3.37,3.371-3.37,8.834,0,12.204
		l46.022,46.022c1.684,1.684,3.894,2.527,6.101,2.527s4.417-0.842,6.101-2.527c3.37-3.371,3.37-8.834,0-12.204l-39.921-39.92
		l39.921-39.92C173.899,188.547,173.899,183.084,170.529,179.713z"/>
	<path style="fill:#FF7258;" d="M341.364,283.963c1.686,1.684,3.895,2.527,6.103,2.527c2.208,0,4.417-0.842,6.103-2.527
		l46.022-46.022c3.37-3.371,3.37-8.834,0-12.204l-46.022-46.022c-3.371-3.369-8.834-3.369-12.204,0c-3.37,3.371-3.37,8.834,0,12.204
		l39.92,39.92l-39.921,39.92C337.994,275.129,337.994,280.592,341.364,283.963z"/>
	<path style="fill:#FF7258;" d="M230.945,309.067c0.884,0.285,1.779,0.421,2.66,0.421c3.642,0,7.026-2.323,8.208-5.974
		l44.688-138.039c1.467-4.533-1.018-9.399-5.553-10.867c-4.534-1.465-9.4,1.017-10.867,5.553L225.395,298.2
		C223.926,302.734,226.411,307.599,230.945,309.067z"/>
</g>
<g>
</g>
<g>
</g>
<g>
</g>
<g>
</g>
<g>
</g>
<g>
</g>
<g>
</g>
<g>
</g>
<g>
</g>
<g>
</g>
<g>
</g>
<g>
</g>
<g>
</g>
<g>
</g>
<g>
</g>
</svg>
